<svg clip-rule="evenodd" fill-rule="evenodd" height="10in" image-rendering="optimizeQuality" shape-rendering="geometricPrecision" text-rendering="geometricPrecision" viewBox="0 0 15000 10000" width="15in" xmlns="http://www.w3.org/2000/svg"><g fill-rule="nonzero"><g fill="#004186"><path d="m5186 4560c0-31 11-58 34-80 22-22 49-33 79-33 31 0 58 11 80 33s33 49 33 80-11 58-33 79c-22 22-49 33-80 33-30 0-57-11-79-33-23-21-34-48-34-79zm-84 1040h51c13 0 24-5 34-14 9-10 13-21 13-35v-833h196v833c0 34-7 66-20 96-12 30-30 56-52 78s-48 40-77 53-61 19-94 19h-51z"/><path d="m6241 5134c0-34-7-65-19-95s-30-56-52-78-48-39-78-52c-29-13-61-20-96-20-34 0-65 7-95 20s-56 30-78 52-39 48-52 78-20 61-20 95c0 33 7 65 20 95 13 31 30 57 52 79s48 40 78 52c30 13 61 20 95 20 35 0 67-7 96-20 30-12 56-30 78-52s40-48 52-79c12-30 19-62 19-95zm0 295h-3c-15 19-31 37-50 55s-39 34-62 47-49 24-77 32c-28 9-58 13-90 13-58 0-112-11-163-33-51-23-95-53-133-93s-68-87-90-141c-22-53-33-112-33-175 0-64 11-122 33-176s52-100 90-139c38-40 82-70 133-93 51-22 105-33 163-33 32 0 62 4 90 12s54 18 77 32c23 13 43 29 62 46 19 18 35 37 50 56h3v-121h200v833h-200z"/><path d="m6815 5551h-202v-833h202zm-214-996c0-31 11-58 33-80s49-33 80-33c32 0 59 11 81 33s33 49 33 80c0 32-11 59-33 81s-49 33-81 33c-31 0-58-11-80-33s-33-49-33-81z"/><path d="m7232 5353v2h435v196h-711v-196l436-440v-3h-436v-194h711v194z"/></g><path d="m8398 5134c0 33 6 65 19 95 13 31 31 57 53 79s48 40 78 52c29 13 61 20 95 20s66-7 96-20c30-12 56-30 78-52s39-48 52-79c12-30 18-62 18-95 0-34-6-65-18-95-13-30-30-56-52-78s-48-39-78-52-62-20-96-20-66 7-95 20c-30 13-56 30-78 52s-40 48-53 78-19 61-19 95zm-16 417h-185v-1079h201v367h3c30-40 67-74 112-102 45-29 101-44 167-44 58 0 112 11 163 33 51 23 95 53 133 93 38 39 68 85 90 139s33 112 33 176c0 63-11 122-33 175-22 54-52 101-90 141s-82 70-133 93c-51 22-105 33-163 33-34 0-67-5-96-13-30-9-57-21-82-36-24-14-46-32-65-52s-37-41-52-63h-3z" fill="#706f6f"/><path d="m9915 5134c0-34-6-65-19-95-12-30-30-56-52-78s-48-39-77-52c-30-13-62-20-97-20-33 0-65 7-95 20s-55 30-77 52c-23 22-40 48-53 78s-19 61-19 95c0 33 6 65 19 95 13 31 30 57 53 79 22 22 47 40 77 52 30 13 62 20 95 20 35 0 67-7 97-20 29-12 55-30 77-52s40-48 52-79c13-30 19-62 19-95zm0 295h-3c-14 19-31 37-50 55-18 18-39 34-62 47s-49 24-77 32c-27 9-58 13-90 13-58 0-112-11-163-33-51-23-95-53-133-93s-68-87-90-141c-22-53-33-112-33-175 0-64 11-122 33-176s52-100 90-139c38-40 82-70 133-93 51-22 105-33 163-33 32 0 63 4 90 12 28 8 54 18 77 32 23 13 44 29 62 46 19 18 36 37 50 56h3v-121h200v833h-200z" fill="#706f6f"/><path d="m10288 5551v-833h185v119h3c22-40 55-74 99-102 43-28 97-42 160-42 48 0 92 9 131 26 40 18 73 42 102 73 28 31 50 69 66 112 16 44 24 92 24 143v504h-202v-478c0-26-5-50-14-72-10-22-23-41-40-58s-36-30-58-39c-22-10-46-15-71-15-26 0-50 5-72 15-22 9-41 22-58 39s-30 36-39 58c-10 22-15 46-15 72v478z" fill="#706f6f"/><path d="m12030 4718-374 387 374 446h-256l-254-305-94 98v207h-196v-1079h196v590l332-344z" fill="#706f6f"/><path d="m4691 4806c-132-446-543-753-1014-756-342-2-683-1-1024-2h-45v901h54c408 0 816-2 1224 0h43v1h94c323 2 556 326 462 636-73 238-302 390-538 357-258-36-435-238-436-498 0-131 0-263 0-395h-906c0 26 0 51 1 76 8 353 147 645 435 852 342 246 716 277 1093 102 478-222 707-768 557-1274z" fill="#ffbf00"/><path d="m8831 6009h-43l-42-155h-1l-43 155h-43l-66-235h45l42 155h1l43-155h42l42 155h2l41-155h46zm113-235h44v235h-44zm205 43v192h-44v-192h-70v-43h183v43zm256 192v-96h-96v96h-44v-235h44v96h96v-96h44v235zm413-235-85 136v99h-44v-99l-85-136h52l55 90h1l53-90zm226 118c0-11-2-22-6-31-5-10-10-19-18-26-7-7-15-13-25-17s-20-6-31-6-22 2-31 6c-10 4-19 10-26 17s-13 16-17 26c-4 9-6 20-6 31s2 21 6 31 10 18 17 25c7 8 16 13 26 17 9 5 20 7 31 7s21-2 31-7c10-4 18-9 25-17 8-7 13-15 18-25 4-10 6-20 6-31zm45 0c0 17-3 33-9 48-7 15-16 28-27 39-12 11-25 19-40 26-16 6-32 9-49 9-18 0-34-3-49-9-16-7-29-15-40-26-12-11-20-24-27-39s-10-31-10-48c0-18 3-34 10-49s15-28 27-39c11-11 24-19 40-25 15-7 31-10 49-10 17 0 33 3 49 10 15 6 28 14 40 25 11 11 20 24 27 39 6 15 9 31 9 49zm240 35c0 14-2 26-7 37-5 10-11 20-19 27-9 8-18 13-30 17-11 4-24 6-37 6-14 0-26-2-38-6-11-4-21-9-29-17-8-7-15-17-20-27-4-11-6-23-6-37v-153h44v153c0 7 1 13 4 19 2 6 6 10 10 14s9 7 16 9c6 3 12 4 19 4s13-1 19-4c6-2 12-5 16-9s8-8 10-14c3-6 4-12 4-19v-153h44zm213-110v53h101v43h-101v96h-44v-235h166v43zm361 75c0-11-2-22-6-31-4-10-10-19-17-26-8-7-16-13-26-17s-20-6-31-6-22 2-31 6c-10 4-18 10-26 17-7 7-12 16-17 26-4 9-6 20-6 31s2 21 6 31c5 10 10 18 17 25 8 8 16 13 26 17 9 5 20 7 31 7s21-2 31-7c10-4 18-9 26-17 7-7 13-15 17-25s6-20 6-31zm46 0c0 17-4 33-10 48-7 15-16 28-27 39-12 11-25 19-40 26-16 6-32 9-49 9-18 0-34-3-49-9-15-7-29-15-40-26s-20-24-27-39-10-31-10-48c0-18 3-34 10-49s16-28 27-39 25-19 40-25c15-7 31-10 49-10 17 0 33 3 49 10 15 6 28 14 40 25 11 11 20 24 27 39 6 15 10 31 10 49zm238-38c0 17-4 32-13 45-9 12-20 22-34 28l41 82h-50l-37-75h-48v75h-44v-235h103c11 0 22 2 32 7 10 4 19 9 26 16 8 7 14 16 18 26 4 9 6 20 6 31zm-45 0c0-5-1-10-3-14-2-5-5-9-8-12s-7-6-12-8c-4-2-9-3-14-3h-59v75h59c5 0 10-1 14-3 5-2 9-5 12-8 3-4 6-8 8-12 2-5 3-9 3-15zm369 155h-161v-235h44v192h117zm47-235h44v235h-44zm150 43v53h101v43h-101v96h-45v-235h167v43zm341 149v43h-172v-235h172v43h-128v53h106v43h-106v53z"/></g></svg>